<svg xmlns="http://www.w3.org/2000/svg" viewBox="0 0 257.76 255.36"><defs><style>.cls-1{fill:#fff;}</style></defs><g id="Layer_2" data-name="Layer 2"><g id="Layer_1-2" data-name="Layer 1"><path d="M257.76,158.49v96.87H.24V99.43a5.46,5.46,0,0,1,.66.62C2,101.6,3,103.17,4.13,104.7c1.26,1.76,2.52,3.53,3.85,5.23A4.48,4.48,0,0,0,11.75,112c6.31-.09,12.63,0,18.94,0,2.73,0,4.08,1.32,4.08,4v49.51A2.07,2.07,0,0,0,37,167.84H51.82A2,2,0,0,0,54,165.73q.12-9,.24-17.94.14-10.64.24-21.29c0-3.63,0-7.27,0-10.9a6.28,6.28,0,0,0-.24-1.62,1.47,1.47,0,0,1,1.15-2,13.09,13.09,0,0,1,2.17,0H75.36a3.23,3.23,0,0,1,3.53,3.48v50.23c0,1.55.59,2.16,2.1,2.16H96.22c1.46,0,2.09-.62,2.09-2.06q0-19.65,0-39.32a6.27,6.27,0,0,0-.62-2.08c-.23-.59-.55-1.15-.83-1.72l.31-.18c1.19,1.18,2.41,2.34,3.58,3.55q2.53,2.59,5,5.25c1.8,1.93,3.55,3.89,5.35,5.81.92,1,1.92,1.86,2.82,2.84,2.18,2.38,4.3,4.82,6.49,7.18s4.2,4.36,6.3,6.54c.84.88,1.71,1.73,2.53,2.62,1.33,1.44,2.62,2.91,3.95,4.35s2.78,2.89,4.12,4.37c1.59,1.75,3.22,2.92,5.87,2.92q50.54-.15,101.06,0a20,20,0,0,0,7.21-1.28,8.41,8.41,0,0,0,2.09-1.58,8.8,8.8,0,0,0,1.09-1.11,12.51,12.51,0,0,0,1.27-1.72C256.55,161,257.14,159.73,257.76,158.49Z" transform="translate(0 0)"/><path d="M257.76.24V103.58a4.37,4.37,0,0,1-.25-.48,33.13,33.13,0,0,0-1.15-3.4c-1.09-2.36-6.2-4.52-8.86-3.6a7.72,7.72,0,0,1-2.46.28c-10.5,0-21,.12-31.52,0s-21,.49-31.43-.39c-4.79-.4-8.48,3.48-8.48,8.23q0,20.43,0,40.87c0,2.53-1,3.59-3.52,3.59a12.25,12.25,0,0,0-2.27.05c-2.71.51-4.77-1.1-4.76-3.81l.24-42.51V98.68A2.08,2.08,0,0,0,161,96.39H147.58c-1.72,0-2.27.54-2.27,2.23q0,18.64,0,37.28a5.57,5.57,0,0,0,1.47,3.61,26.41,26.41,0,0,1,2.47,3.92c.15.28-.1.91-.36,1.22a1.13,1.13,0,0,1-1,.33,7.13,7.13,0,0,1-1.81-1.25,31.3,31.3,0,0,1-2.19-2.41c-.6-.71-1.1-1.51-1.74-2.19-1.37-1.44-2.83-2.8-4.21-4.24-2.23-2.34-4.39-4.75-6.63-7.08s-4.42-4.38-6.58-6.62-4.07-4.43-6.15-6.6c-3.12-3.25-6.28-6.46-9.43-9.68a32.31,32.31,0,0,1-2.73-2.76c-1.69-2.21-4.25-3-6.58-4.11-.66-.32-1.62,0-2.31-.3-2.23-.93-4.59-.82-6.88-.83q-44.16-.09-88.34,0a8.57,8.57,0,0,0-1.94.43V.24Z" transform="translate(0 0)"/><path class="cls-1" d="M257.76.24H.33V97.32a8.57,8.57,0,0,1,1.94-.43q44.18,0,88.34,0c2.29,0,4.65-.1,6.88.83.69.29,1.65,0,2.31.3,2.33,1.14,4.89,1.9,6.58,4.11a32.31,32.31,0,0,0,2.73,2.76c3.15,3.22,6.31,6.43,9.43,9.68,2.08,2.17,4.06,4.44,6.15,6.6s4.42,4.38,6.58,6.62,4.4,4.74,6.63,7.08c1.38,1.44,2.84,2.8,4.21,4.24.64.68,1.14,1.48,1.74,2.19a31.3,31.3,0,0,0,2.19,2.41,7.13,7.13,0,0,0,1.81,1.25,1.13,1.13,0,0,0,1-.33c.26-.31.51-.94.36-1.22a26.41,26.41,0,0,0-2.47-3.92,5.57,5.57,0,0,1-1.47-3.61q0-18.65,0-37.28c0-1.69.55-2.23,2.27-2.23H161a2.08,2.08,0,0,1,2.28,2.29v3.71l-.24,42.51c0,2.71,2,4.32,4.76,3.81a12.25,12.25,0,0,1,2.27-.05c2.48,0,3.52-1.06,3.52-3.59q0-20.43,0-40.87c0-4.75,3.69-8.63,8.48-8.23,10.48.88,20.95.24,31.43.39s21,0,31.52,0a7.72,7.72,0,0,0,2.46-.28c2.66-.92,7.77,1.24,8.86,3.6a33.13,33.13,0,0,1,1.15,3.4,4.37,4.37,0,0,0,.25.48v16.31c-.21.09-.54.12-.61.27-.52,1.13-1.51.93-2.44.93h-15c-2.19,0-2.83-.63-2.83-2.78v-2.75c0-2.48-1.1-3.59-3.55-3.59q-22.59,0-45.17,0a8.51,8.51,0,0,0-1.41-.1,4.61,4.61,0,0,0-1.63.61,1,1,0,0,0-.11.91,3.74,3.74,0,0,0,1.65.7c1.06,0,2.12-.17,3.18-.19a2.68,2.68,0,0,1,2.92,2.93c0,10.58,0,21.17,0,31.76a3.54,3.54,0,0,0,3.47,3.47c12.47-.08,24.93,0,37.39,0,2.17,0,3.3-1.12,3.3-3.26V145.4c0-1.62.63-2.25,2.29-2.25,4.39,0,8.78,0,13.18,0,1.84,0,3.79-.46,5.39.94v14.39c-.62,1.24-1.21,2.49-1.88,3.7a12.51,12.51,0,0,1-1.27,1.72,8.8,8.8,0,0,1-1.09,1.11,8.41,8.41,0,0,1-2.09,1.58,20,20,0,0,1-7.21,1.28q-50.53-.07-101.06,0c-2.65,0-4.28-1.17-5.87-2.92-1.34-1.48-2.76-2.9-4.12-4.37s-2.62-2.91-3.95-4.35c-.82-.89-1.69-1.74-2.53-2.62-2.1-2.18-4.24-4.32-6.3-6.54s-4.31-4.8-6.49-7.18c-.9-1-1.9-1.86-2.82-2.84-1.8-1.92-3.55-3.88-5.35-5.81q-2.48-2.66-5-5.25c-1.17-1.21-2.39-2.37-3.58-3.55l-.31.18c.28.57.6,1.13.83,1.72a6.27,6.27,0,0,1,.62,2.08q.06,19.67,0,39.32c0,1.44-.63,2.06-2.09,2.06H81c-1.51,0-2.1-.61-2.1-2.16V115.45A3.23,3.23,0,0,0,75.36,112H57.5a13.09,13.09,0,0,0-2.17,0,1.47,1.47,0,0,0-1.15,2,6.28,6.28,0,0,1,.24,1.62c0,3.63,0,7.27,0,10.9q-.1,10.65-.24,21.29-.11,9-.24,17.94a2,2,0,0,1-2.13,2.11H37a2.07,2.07,0,0,1-2.19-2.37V116c0-2.67-1.35-4-4.08-4-6.31,0-12.63,0-18.94,0A4.48,4.48,0,0,1,8,109.93c-1.33-1.7-2.59-3.47-3.85-5.23C3,103.17,2,101.6.9,100.05a5.46,5.46,0,0,0-.66-.62V255.36c-.08,0-.22-.08-.23-.12,0-.32,0-.64,0-1V0H256.68A5.21,5.21,0,0,1,257.76.24Z" transform="translate(0 0)"/><path d="M257.76,144.1c-1.6-1.4-3.55-.93-5.39-.94-4.4,0-8.79,0-13.18,0-1.66,0-2.29.63-2.29,2.25v3.36c0,2.14-1.13,3.26-3.3,3.26-12.46,0-24.92,0-37.39,0a3.54,3.54,0,0,1-3.47-3.47c.08-10.59,0-21.18,0-31.76a2.68,2.68,0,0,0-2.92-2.93c-1.06,0-2.12.24-3.18.19a3.74,3.74,0,0,1-1.65-.7,1,1,0,0,1,.11-.91,4.61,4.61,0,0,1,1.63-.61,8.51,8.51,0,0,1,1.41.1q22.59,0,45.17,0c2.45,0,3.55,1.11,3.55,3.59v2.75c0,2.15.64,2.78,2.83,2.78h15c.93,0,1.92.2,2.44-.93.07-.15.4-.18.61-.27Z" transform="translate(0 0)"/></g></g></svg>